<svg width="26" height="24" viewBox="0 0 26 24" fill="none" xmlns="http://www.w3.org/2000/svg">
<path d="M8.41842 0.155952C9.19425 0.179547 9.94545 0.31501 10.6733 0.562538H10.7459C10.7952 0.585936 10.8321 0.611797 10.8568 0.635195C11.1289 0.72263 11.3863 0.821149 11.6326 0.956612L12.1005 1.16596C12.2853 1.26448 12.5069 1.44797 12.6301 1.52309C12.7532 1.59575 12.8887 1.67087 12.9995 1.75584C14.3677 0.710315 16.029 0.143834 17.7407 0.155952C18.5178 0.155952 19.2936 0.265751 20.0313 0.513278C24.5767 1.99106 26.2146 6.97856 24.8464 11.338C24.0705 13.5658 22.8021 15.5989 21.1409 17.2602C18.7629 19.5631 16.1534 21.6073 13.3443 23.3683L13.0365 23.5543L12.7163 23.356C9.89743 21.6073 7.27314 19.5631 4.87298 17.2479C3.2228 15.5866 1.95314 13.5658 1.16499 11.338C-0.226584 6.97856 1.41129 1.99106 6.00594 0.487417C6.36307 0.364269 6.73129 0.278065 7.10073 0.230038H7.24851C7.59456 0.179547 7.93814 0.155952 8.28295 0.155952H8.41842ZM19.3909 4.04763C18.886 3.87399 18.3318 4.14615 18.1471 4.66337C17.9747 5.18059 18.2456 5.74707 18.7629 5.93057C19.5522 6.22612 20.0805 7.00319 20.0805 7.86399V7.90217C20.0571 8.18418 20.1421 8.45633 20.3145 8.66569C20.4869 8.87504 20.7455 8.99695 21.0165 9.02281C21.5214 9.00927 21.9524 8.60411 21.9893 8.08566V7.93911C22.0263 6.21381 20.9808 4.65106 19.3909 4.04763Z" fill="#090909"/>
</svg>
