<svg width="31" height="30" viewBox="0 0 31 30" fill="none" xmlns="http://www.w3.org/2000/svg">
<path d="M15.2878 18.1274C19.5133 18.1274 23.1212 18.7973 23.1212 21.478C23.1212 24.1575 19.5364 24.8518 15.2878 24.8518C11.0624 24.8518 7.45447 24.1819 7.45447 21.5024C7.45447 18.8217 11.0393 18.1274 15.2878 18.1274ZM22.0438 16.5133C23.6592 16.4833 25.3959 16.7051 26.0377 16.8626C27.3973 17.1299 28.2915 17.6756 28.662 18.4686C28.9752 19.1196 28.9752 19.8749 28.662 20.5248C28.0953 21.7548 26.2681 22.1496 25.558 22.2516C25.4114 22.2738 25.2934 22.1463 25.3088 21.9988C25.6716 18.5906 22.7859 16.9746 22.0394 16.6031C22.0074 16.5865 22.0008 16.561 22.0041 16.5454C22.0063 16.5343 22.0195 16.5166 22.0438 16.5133ZM8.35406 16.511L8.65825 16.5137C8.68251 16.517 8.69464 16.5348 8.69685 16.5448C8.70016 16.5614 8.69354 16.5858 8.66266 16.6035C7.91505 16.9751 5.02936 18.591 5.39214 21.9981C5.40758 22.1467 5.29069 22.2732 5.14404 22.2521C4.43392 22.1501 2.60679 21.7552 2.04002 20.5253C1.72576 19.8742 1.72576 19.12 2.04002 18.469C2.41052 17.676 3.30368 17.1304 4.66327 16.862C5.30613 16.7056 7.04174 16.4838 8.65825 16.5137L8.35406 16.511ZM15.2878 5.14807C18.1647 5.14807 20.4715 7.46605 20.4715 10.3607C20.4715 13.2543 18.1647 15.5745 15.2878 15.5745C12.411 15.5745 10.1042 13.2543 10.1042 10.3607C10.1042 7.46605 12.411 5.14807 15.2878 5.14807ZM22.325 6.01737C25.1037 6.01737 27.2859 8.647 26.5427 11.5761C26.041 13.548 24.2249 14.8578 22.2015 14.8046C21.9986 14.7991 21.799 14.7802 21.606 14.7469C21.466 14.7225 21.3954 14.5639 21.4748 14.4464C22.2467 13.304 22.6867 11.9299 22.6867 10.4548C22.6867 8.9154 22.2059 7.48025 21.3712 6.30351C21.3447 6.26691 21.3249 6.21035 21.3513 6.1682C21.3734 6.13382 21.4142 6.11608 21.4528 6.1072C21.734 6.04953 22.0229 6.01737 22.325 6.01737ZM8.37542 6.01726C8.67755 6.01726 8.96645 6.04942 9.24873 6.10709C9.28623 6.11597 9.32813 6.13482 9.35018 6.16809C9.37554 6.21024 9.3568 6.2668 9.33033 6.3034C8.49561 7.48013 8.01484 8.91528 8.01484 10.4547C8.01484 11.9298 8.45481 13.3039 9.22668 14.4463C9.30607 14.5638 9.2355 14.7224 9.09546 14.7468C8.90139 14.7812 8.70291 14.799 8.50002 14.8045C6.47662 14.8577 4.66052 13.5479 4.1588 11.576C3.4145 8.64689 5.59668 6.01726 8.37542 6.01726Z" fill="#090909"/>
</svg>
