<svg width="30" height="30" viewBox="0 0 30 30" fill="none" xmlns="http://www.w3.org/2000/svg">
<path d="M16.875 20C16.875 20.4973 16.6775 20.9742 16.3258 21.3258C15.9742 21.6775 15.4973 21.875 15 21.875C14.5027 21.875 14.0258 21.6775 13.6742 21.3258C13.3225 20.9742 13.125 20.4973 13.125 20C13.125 19.5027 13.3225 19.0258 13.6742 18.6742C14.0258 18.3225 14.5027 18.125 15 18.125C15.4973 18.125 15.9742 18.3225 16.3258 18.6742C16.6775 19.0258 16.875 19.5027 16.875 20Z" fill="#090909"/>
<path d="M17.9338 0.824951L21.9088 6.39495L24.53 5.5012L26.9225 12.5H28.125V27.5H1.875V12.5H2.5125V12.4875L3.3225 12.495L17.9338 0.824951ZM11.7463 12.5H24.2812L22.985 8.7087L21.0825 9.31745L11.7463 12.5ZM9.79875 10.5212L19.4375 7.23745L17.4325 4.42495L9.79875 10.5212ZM6.875 15H4.375V17.5C5.03804 17.5 5.67393 17.2366 6.14277 16.7677C6.61161 16.2989 6.875 15.663 6.875 15ZM19.375 20C19.375 19.4254 19.2618 18.8565 19.042 18.3257C18.8221 17.7949 18.4998 17.3126 18.0936 16.9064C17.6873 16.5001 17.205 16.1778 16.6742 15.958C16.1434 15.7381 15.5745 15.625 15 15.625C14.4255 15.625 13.8566 15.7381 13.3258 15.958C12.795 16.1778 12.3127 16.5001 11.9064 16.9064C11.5002 17.3126 11.1779 17.7949 10.958 18.3257C10.7382 18.8565 10.625 19.4254 10.625 20C10.625 21.1603 11.0859 22.2731 11.9064 23.0935C12.7269 23.914 13.8397 24.375 15 24.375C16.1603 24.375 17.2731 23.914 18.0936 23.0935C18.9141 22.2731 19.375 21.1603 19.375 20ZM25.625 25V22.5C24.962 22.5 24.3261 22.7633 23.8572 23.2322C23.3884 23.701 23.125 24.3369 23.125 25H25.625ZM23.125 15C23.125 15.663 23.3884 16.2989 23.8572 16.7677C24.3261 17.2366 24.962 17.5 25.625 17.5V15H23.125ZM4.375 25H6.875C6.875 24.3369 6.61161 23.701 6.14277 23.2322C5.67393 22.7633 5.03804 22.5 4.375 22.5V25Z" fill="#090909"/>
</svg>
