<svg width="30" height="30" viewBox="0 0 30 30" fill="none" xmlns="http://www.w3.org/2000/svg">
<path fill-rule="evenodd" clip-rule="evenodd" d="M2.88142 15C2.88142 8.37273 8.2807 3 14.9407 3C21.6007 3 27 8.37273 27 15C27 21.6273 21.6007 27 14.9407 27H2L5.14199 21.9971C3.6682 19.9591 2.87723 17.5108 2.88142 15ZM14.8727 10.0909C14.2912 10.0909 13.7335 10.3208 13.3223 10.7299C12.9111 11.1391 12.6801 11.6941 12.6801 12.2727V12.8793H10.4875V12.2727C10.4875 11.1154 10.9496 10.0055 11.7719 9.18717C12.5943 8.36883 13.7097 7.90909 14.8727 7.90909C16.0358 7.90909 17.1512 8.36883 17.9735 9.18717C18.7959 10.0055 19.2579 11.1154 19.2579 12.2727C19.2579 12.2727 19.2397 13.1452 19 13.5C18.8926 13.659 18.8896 13.6942 18.8896 13.6942L15.969 16.2775V17.7273H13.7764V15.2978L14.1437 14.9727L17.0653 12.3884V12.2727C17.0653 11.6941 16.8343 11.1391 16.4231 10.7299C16.0119 10.3208 15.4543 10.0909 14.8727 10.0909ZM13.7764 21.5455V19.3636H15.969V21.5455H13.7764Z" fill="#090909"/>
</svg>
