<svg width="31" height="30" viewBox="0 0 31 30" fill="none" xmlns="http://www.w3.org/2000/svg">
<path d="M20.912 3.82361C25.1592 3.82361 27.6659 6.2676 27.6659 10.4512H22.4554V10.4939C20.0372 10.4939 18.0768 12.4052 18.0768 14.7629C18.0768 17.1206 20.0372 19.0318 22.4554 19.0318H27.6659V19.416C27.6659 23.5463 25.1592 25.9903 20.912 25.9903H9.79031C5.54307 25.9903 3.03632 23.5463 3.03632 19.416V10.3978C3.03632 6.2676 5.54307 3.82361 9.79031 3.82361H20.912ZM26.7464 12.2869C27.2543 12.2869 27.6659 12.6882 27.6659 13.1833V16.2997C27.66 16.7924 27.2518 17.1904 26.7464 17.1962H22.5539C21.3297 17.2122 20.2592 16.395 19.9815 15.2325C19.8424 14.5108 20.0377 13.7661 20.5148 13.1979C20.992 12.6298 21.7023 12.2963 22.4554 12.2869H26.7464ZM23.0465 13.7276H22.6415C22.3928 13.7248 22.1534 13.8191 21.9765 13.9895C21.7996 14.16 21.7001 14.3923 21.7001 14.6348C21.7001 15.1435 22.1198 15.5574 22.6415 15.5633H23.0465C23.5664 15.5633 23.9879 15.1524 23.9879 14.6455C23.9879 14.1386 23.5664 13.7276 23.0465 13.7276ZM15.8218 8.61554H8.8708C8.35513 8.6155 7.9354 9.01996 7.9294 9.52269C7.9294 10.0314 8.34912 10.4453 8.8708 10.4512H15.8218C16.3418 10.4512 16.7632 10.0403 16.7632 9.53337C16.7632 9.02646 16.3418 8.61554 15.8218 8.61554Z" fill="#090909"/>
</svg>
