<svg width="32" height="32" viewBox="0 0 32 32" fill="none" xmlns="http://www.w3.org/2000/svg">
<rect x="0.5" y="0.5" width="31" height="31" rx="15.5" stroke="#9E9E9E"/>
<path d="M16.0124 9.93994C13.8057 9.93994 12.0124 11.7333 12.0124 13.9399V15.8666C12.0124 16.2733 11.8391 16.8933 11.6324 17.2399L10.8657 18.5133C10.3924 19.2999 10.7191 20.1733 11.5857 20.4666C14.4591 21.4266 17.5591 21.4266 20.4324 20.4666C21.2391 20.1999 21.5924 19.2466 21.1524 18.5133L20.3857 17.2399C20.1857 16.8933 20.0124 16.2733 20.0124 15.8666V13.9399C20.0124 11.7399 18.2124 9.93994 16.0124 9.93994Z" stroke="#090909" stroke-width="1.5" stroke-miterlimit="10" stroke-linecap="round"/>
<path d="M17.246 10.1333C17.0393 10.0733 16.826 10.0267 16.606 10C15.966 9.92 15.3526 9.96667 14.7793 10.1333C14.9726 9.64 15.4526 9.29333 16.0126 9.29333C16.5726 9.29333 17.0526 9.64 17.246 10.1333Z" stroke="#090909" stroke-width="1.5" stroke-miterlimit="10" stroke-linecap="round" stroke-linejoin="round"/>
<path d="M18.0137 20.7067C18.0137 21.8067 17.1137 22.7067 16.0137 22.7067C15.467 22.7067 14.9603 22.48 14.6003 22.12C14.2403 21.76 14.0137 21.2533 14.0137 20.7067" stroke="#090909" stroke-width="1.5" stroke-miterlimit="10"/>
</svg>
