<svg width="24" height="25" viewBox="0 0 24 25" fill="none" xmlns="http://www.w3.org/2000/svg">
<path fill-rule="evenodd" clip-rule="evenodd" d="M20.5664 4.72345C20.6408 4.64907 20.6998 4.56076 20.74 4.46358C20.7803 4.3664 20.801 4.26224 20.801 4.15705C20.801 4.05186 20.7803 3.9477 20.74 3.85051C20.6998 3.75333 20.6408 3.66503 20.5664 3.59065C20.492 3.51627 20.4037 3.45727 20.3065 3.41701C20.2093 3.37676 20.1052 3.35604 20 3.35604C19.8948 3.35604 19.7906 3.37676 19.6935 3.41701C19.5963 3.45727 19.508 3.51627 19.4336 3.59065L12 11.0258L4.56639 3.59065C4.492 3.51627 4.4037 3.45727 4.30652 3.41701C4.20934 3.37676 4.10518 3.35604 3.99999 3.35604C3.89479 3.35604 3.79063 3.37676 3.69345 3.41701C3.59627 3.45727 3.50797 3.51627 3.43358 3.59065C3.3592 3.66503 3.3002 3.75333 3.25995 3.85051C3.21969 3.9477 3.19897 4.05186 3.19897 4.15705C3.19897 4.26224 3.21969 4.3664 3.25995 4.46358C3.3002 4.56076 3.3592 4.64907 3.43358 4.72345L10.8688 12.157L3.43358 19.5906C3.28337 19.7409 3.19897 19.9446 3.19897 20.157C3.19897 20.3695 3.28337 20.5732 3.43358 20.7234C3.5838 20.8737 3.78754 20.9581 3.99999 20.9581C4.21243 20.9581 4.41617 20.8737 4.56639 20.7234L12 13.2882L19.4336 20.7234C19.5838 20.8737 19.7875 20.9581 20 20.9581C20.2124 20.9581 20.4162 20.8737 20.5664 20.7234C20.7166 20.5732 20.801 20.3695 20.801 20.157C20.801 19.9446 20.7166 19.7409 20.5664 19.5906L13.1312 12.157L20.5664 4.72345Z" fill="#090909"/>
</svg>
