<svg width="42" height="43" viewBox="0 0 42 43" fill="none" xmlns="http://www.w3.org/2000/svg">
<path d="M35.2734 16.0859C35.2734 8.21586 28.8701 1.8125 21 1.8125C13.1299 1.8125 6.72656 8.21586 6.72656 16.0859C6.72656 23.3449 12.1734 29.3561 19.1953 30.2453V32.8203H14.4375V36.4297H19.1953V41.1875H22.8047V36.4297H27.5625V32.8203H22.8047V30.2453C29.8266 29.3561 35.2734 23.3449 35.2734 16.0859ZM10.3359 16.0859C10.3359 10.2059 15.12 5.42188 21 5.42188C26.88 5.42188 31.6641 10.2059 31.6641 16.0859C31.6641 21.9659 26.88 26.75 21 26.75C15.12 26.75 10.3359 21.9659 10.3359 16.0859Z" fill="white"/>
</svg>
