<svg width="24" height="25" viewBox="0 0 24 25" fill="none" xmlns="http://www.w3.org/2000/svg">
<path d="M24 12.5V12.494C24 8.943 22.454 5.754 19.999 3.561L19.987 3.551C19.9567 3.51834 19.9228 3.48916 19.886 3.464L19.884 3.463C17.7035 1.54877 14.8996 0.495619 11.998 0.500997C8.966 0.500997 6.198 1.627 4.088 3.485L4.101 3.474C4.07565 3.49338 4.05221 3.51515 4.031 3.539C2.76258 4.66223 1.74728 6.04314 1.05235 7.58833C0.357418 9.13352 -0.00128339 10.8087 3.45014e-06 12.503C3.45014e-06 16.053 1.544 19.242 3.997 21.436L4.009 21.446C4.04092 21.4819 4.07644 21.5144 4.115 21.543L4.117 21.544C6.29684 23.4556 9.09869 24.5073 11.998 24.502C14.9109 24.5065 17.7247 23.4451 19.909 21.518L19.896 21.529C21.1865 20.4071 22.2209 19.021 22.9293 17.4647C23.6377 15.9083 24.0035 14.218 24.002 12.508V12.501L24 12.5ZM19.538 20.305C18.9433 19.8245 18.3041 19.4019 17.629 19.043L17.564 19.011C18.177 17.244 18.546 15.207 18.581 13.088V13.072H22.842C22.6987 15.8135 21.5187 18.398 19.541 20.302L19.538 20.305ZM12.572 18.8C13.855 18.869 15.054 19.151 16.16 19.61L16.088 19.584C15.202 21.604 13.955 22.992 12.572 23.297V18.8ZM12.572 17.656V13.072H17.44C17.4013 14.9702 17.0721 16.8514 16.464 18.65L16.503 18.519C15.2617 18.008 13.9411 17.7163 12.6 17.657L12.573 17.656H12.572ZM12.572 11.928V7.344C13.9492 7.28135 15.305 6.97986 16.579 6.453L16.5 6.482C17.055 8.101 17.396 9.967 17.44 11.907V11.928H12.572ZM12.572 6.2V1.705C13.955 2.01 15.202 3.392 16.088 5.418C15.054 5.848 13.855 6.129 12.601 6.199L12.572 6.2ZM15.426 2.2C16.6047 2.59228 17.7068 3.18497 18.684 3.952L18.661 3.934C18.218 4.282 17.721 4.61 17.197 4.895L17.141 4.923C16.7187 3.92315 16.1364 2.99872 15.417 2.186L15.426 2.197V2.2ZM11.426 1.708V6.2C10.1925 6.13715 8.97889 5.86318 7.838 5.39L7.91 5.416C8.8 3.396 10.045 2.009 11.428 1.704L11.426 1.708ZM6.858 4.92C6.31607 4.62812 5.79959 4.29127 5.314 3.913L5.338 3.931C6.28667 3.18644 7.35438 2.60762 8.496 2.219L8.572 2.196C7.87215 2.98723 7.30208 3.88435 6.883 4.854L6.858 4.92ZM11.428 7.343V11.927H6.56C6.604 9.966 6.945 8.1 7.539 6.35L7.5 6.481C8.74136 6.98951 10.0609 7.28076 11.401 7.342L11.428 7.343ZM11.428 13.071V17.655C10.0508 17.7176 8.69497 18.0191 7.421 18.546L7.5 18.517C6.945 16.899 6.604 15.032 6.56 13.092V13.071H11.428ZM11.428 18.799V23.294C10.045 22.989 8.798 21.607 7.912 19.581C8.946 19.151 10.145 18.871 11.399 18.801L11.428 18.799ZM8.578 22.799C7.40039 22.4061 6.29854 21.8149 5.32 21.051L5.344 21.069C5.787 20.721 6.284 20.393 6.808 20.108L6.864 20.08C7.28318 21.08 7.86543 22.0036 8.587 22.813L8.578 22.803V22.799ZM17.142 20.079C17.722 20.394 18.219 20.721 18.686 21.086L18.662 21.068C17.7133 21.8125 16.6456 22.3914 15.504 22.78L15.428 22.803C16.1278 22.0121 16.6978 21.1153 17.117 20.146L17.142 20.081V20.079ZM22.842 11.928H18.581C18.5497 9.85901 18.1927 7.80786 17.523 5.85L17.564 5.988C18.2704 5.61597 18.9391 5.1766 19.561 4.676L19.537 4.694C21.5113 6.59026 22.6919 9.16552 22.84 11.899L22.842 11.928ZM4.462 4.695C5.038 5.163 5.685 5.592 6.371 5.957L6.436 5.989C5.823 7.756 5.454 9.793 5.419 11.912V11.928H1.157C1.3003 9.1865 2.48032 6.60197 4.458 4.698L4.462 4.695ZM1.158 13.072H5.419C5.45027 15.141 5.80732 17.1921 6.477 19.15L6.436 19.012C5.685 19.411 5.039 19.84 4.439 20.324L4.463 20.306C2.48866 18.4097 1.30808 15.8345 1.16 13.101L1.159 13.073L1.158 13.072Z" fill="#090909"/>
</svg>
