<svg width="21" height="22" viewBox="0 0 21 22" fill="none" xmlns="http://www.w3.org/2000/svg">
<path d="M10.0327 1C10.3205 1.00031 10.5973 1.10875 10.8065 1.30316C11.0158 1.49758 11.1417 1.76328 11.1586 2.04599C11.1754 2.32871 11.082 2.60709 10.8973 2.82426C10.7126 3.04143 10.4505 3.181 10.1648 3.21444L10.0327 3.22222H4.38725C4.1107 3.22226 3.84378 3.32217 3.63712 3.50302C3.43046 3.68386 3.29843 3.93305 3.26607 4.20333L3.25817 4.33333V17.6667C3.25821 17.9388 3.35974 18.2015 3.54351 18.4049C3.72728 18.6082 3.9805 18.7382 4.25515 18.77L4.38725 18.7778H9.46814C9.75592 18.7781 10.0327 18.8865 10.242 19.0809C10.4512 19.2754 10.5772 19.5411 10.594 19.8238C10.6109 20.1065 10.5174 20.3849 10.3327 20.602C10.148 20.8192 9.88601 20.9588 9.60024 20.9922L9.46814 21H4.38725C3.52327 21 2.69192 20.6752 2.0633 20.0919C1.43469 19.5086 1.05633 18.711 1.00565 17.8622L1 17.6667V4.33333C0.999952 3.4831 1.33006 2.66498 1.92278 2.04638C2.51551 1.42777 3.32604 1.05544 4.18854 1.00556L4.38725 1H10.0327ZM16.4764 7.07111L19.6694 10.2144C19.8811 10.4228 20 10.7054 20 11C20 11.2946 19.8811 11.5772 19.6694 11.7856L16.4764 14.9289C16.2645 15.1372 15.9772 15.2542 15.6777 15.2541C15.3782 15.254 15.091 15.1368 14.8793 14.9283C14.6676 14.7198 14.5487 14.4371 14.5488 14.1424C14.5489 13.8476 14.668 13.565 14.8798 13.3567L16.1455 12.1111H10.0327C9.73323 12.1111 9.44604 11.994 9.23429 11.7857C9.02255 11.5773 8.90359 11.2947 8.90359 11C8.90359 10.7053 9.02255 10.4227 9.23429 10.2143C9.44604 10.006 9.73323 9.88889 10.0327 9.88889H16.1455L14.8798 8.64333C14.668 8.43499 14.5489 8.15236 14.5488 7.85762C14.5487 7.56287 14.6676 7.28016 14.8793 7.07167C15.091 6.86318 15.3782 6.74599 15.6777 6.74589C15.9772 6.74578 16.2645 6.86277 16.4764 7.07111Z" fill="#090909" stroke="white" stroke-width="0.5"/>
</svg>
