<svg width="42" height="43" viewBox="0 0 42 43" fill="none" xmlns="http://www.w3.org/2000/svg">
<path d="M27.0702 4.4375V8.04688H31.901L26.9471 13.0007C21.3526 8.66457 13.2479 9.06324 8.11768 14.1959C2.55268 19.7618 2.55268 28.8164 8.12096 34.3789C10.7997 37.0497 14.4281 38.5494 18.2108 38.5494C21.9935 38.5494 25.6219 37.0497 28.3006 34.3789C33.4333 29.2454 33.832 21.144 29.4958 15.5495L34.453 10.5989V15.4297H38.0624V4.4375H27.0702ZM25.7511 31.8294C23.7499 33.8265 21.0381 34.9481 18.2108 34.9481C15.3835 34.9481 12.6717 33.8265 10.6705 31.8294C6.51232 27.672 6.51232 20.9061 10.6705 16.7487C14.8287 12.5914 21.5938 12.5906 25.7511 16.7487C29.9085 20.9069 29.9093 27.672 25.7511 31.8294Z" fill="black"/>
</svg>
