<svg width="24" height="25" viewBox="0 0 24 25" fill="none" xmlns="http://www.w3.org/2000/svg">
<path d="M20 18.157C20.2549 18.1573 20.5 18.2549 20.6854 18.4299C20.8707 18.6049 20.9822 18.844 20.9972 19.0984C21.0121 19.3529 20.9293 19.6034 20.7657 19.7989C20.6021 19.9943 20.3701 20.1199 20.117 20.15L20 20.157H4C3.74512 20.1568 3.49997 20.0592 3.31463 19.8842C3.1293 19.7092 3.01777 19.4701 3.00283 19.2157C2.98789 18.9612 3.07067 18.7107 3.23426 18.5152C3.39786 18.3198 3.6299 18.1942 3.883 18.164L4 18.157H20ZM20 11.157C20.2652 11.157 20.5196 11.2624 20.7071 11.4499C20.8946 11.6375 21 11.8918 21 12.157C21 12.4223 20.8946 12.6766 20.7071 12.8642C20.5196 13.0517 20.2652 13.157 20 13.157H4C3.73478 13.157 3.48043 13.0517 3.29289 12.8642C3.10536 12.6766 3 12.4223 3 12.157C3 11.8918 3.10536 11.6375 3.29289 11.4499C3.48043 11.2624 3.73478 11.157 4 11.157H20ZM20 4.15705C20.2652 4.15705 20.5196 4.2624 20.7071 4.44994C20.8946 4.63748 21 4.89183 21 5.15705C21 5.42226 20.8946 5.67662 20.7071 5.86415C20.5196 6.05169 20.2652 6.15705 20 6.15705H4C3.73478 6.15705 3.48043 6.05169 3.29289 5.86415C3.10536 5.67662 3 5.42226 3 5.15705C3 4.89183 3.10536 4.63748 3.29289 4.44994C3.48043 4.2624 3.73478 4.15705 4 4.15705H20Z" fill="#090909"/>
</svg>
