<svg width="151" height="148" viewBox="0 0 151 148" fill="none" xmlns="http://www.w3.org/2000/svg">
<rect y="0.5" width="146" height="146" rx="73" fill="#F3F3F5"/>
<g opacity="0.1">
<path d="M81.348 69.853C88.2603 71.8739 94.3316 76.0804 98.6521 81.8423C102.972 87.6041 105.309 94.6108 105.312 101.812H38.6875C38.689 94.6104 41.0252 87.6028 45.3459 81.8407C49.6665 76.0786 55.7388 71.8724 62.652 69.853L72 83.875L81.348 69.853ZM88.6562 51.8438C88.6562 56.2613 86.9014 60.4978 83.7777 63.6215C80.6541 66.7452 76.4175 68.5 72 68.5C67.5825 68.5 63.3459 66.7452 60.2223 63.6215C57.0986 60.4978 55.3438 56.2613 55.3438 51.8438C55.3438 47.4262 57.0986 43.1897 60.2223 40.066C63.3459 36.9423 67.5825 35.1875 72 35.1875C76.4175 35.1875 80.6541 36.9423 83.7777 40.066C86.9014 43.1897 88.6562 47.4262 88.6562 51.8438Z" fill="black"/>
</g>
<circle cx="126" cy="122.5" r="22" fill="#090909" stroke="white" stroke-width="6"/>
<path d="M134.75 123.748H127.25V131.248H124.75V123.748H117.25V121.248H124.75V113.748H127.25V121.248H134.75V123.748Z" fill="white"/>
</svg>
