<svg width="20" height="20" viewBox="0 0 20 20" fill="none" xmlns="http://www.w3.org/2000/svg">
<path fill-rule="evenodd" clip-rule="evenodd" d="M5.83333 4.79167C5.83333 3.6866 6.27232 2.62679 7.05372 1.84539C7.83512 1.06399 8.89493 0.625 10 0.625C11.1051 0.625 12.1649 1.06399 12.9463 1.84539C13.7277 2.62679 14.1667 3.6866 14.1667 4.79167C14.1667 5.89674 13.7277 6.95654 12.9463 7.73795C12.1649 8.51935 11.1051 8.95833 10 8.95833C8.89493 8.95833 7.83512 8.51935 7.05372 7.73795C6.27232 6.95654 5.83333 5.89674 5.83333 4.79167ZM5.83333 11.0417C4.452 11.0417 3.12724 11.5904 2.15049 12.5672C1.17373 13.5439 0.625 14.8687 0.625 16.25C0.625 17.0788 0.95424 17.8737 1.54029 18.4597C2.12634 19.0458 2.9212 19.375 3.75 19.375H16.25C17.0788 19.375 17.8737 19.0458 18.4597 18.4597C19.0458 17.8737 19.375 17.0788 19.375 16.25C19.375 14.8687 18.8263 13.5439 17.8495 12.5672C16.8728 11.5904 15.548 11.0417 14.1667 11.0417H5.83333Z" fill="#090909"/>
</svg>
